<svg width="64px" height="64px" viewBox="0 0 1024 1024" class="icon" version="1.1" xmlns="http://www.w3.org/2000/svg" fill="#000000"><g id="SVGRepo_bgCarrier" stroke-width="0"></g><g id="SVGRepo_tracerCarrier" stroke-linecap="round" stroke-linejoin="round"></g><g id="SVGRepo_iconCarrier"><path d="M841.4 274.1c-1.4-5.1-6.9-9.3-12.2-9.3h-56.9c-5.3 0-10.8 4.2-12.2 9.3l-12.8 46.1c-1.4 5.1 1.8 9.3 7.1 9.3h92.7c5.3 0 8.5-4.2 7.1-9.3l-12.8-46.1z" fill="#ada9aa"></path><path d="M94.2 665V348.4c0-26.5 21.7-48.3 48.3-48.3h739c26.5 0 48.3 21.7 48.3 48.3V665H94.2z" fill="#dfc3c6"></path><path d="M929.7 665V499.9H94.2V665" fill="#e6005c"></path><path d="M94.2 533.1h835.5v29H94.2z" fill="#cc0000"></path><path d="M960.2 679.6c0 9.9-8.1 18-18 18h-40.4c-9.9 0-18-8.1-18-18v-29.2c0-9.9 8.1-18 18-18h40.4c9.9 0 18 8.1 18 18v29.2zM132.4 679.6c0 9.9-8.1 18-18 18H81.8c-9.9 0-18-8.1-18-18v-29.2c0-9.9 8.1-18 18-18h32.7c9.9 0 18 8.1 18 18l-0.1 29.2z" fill="#ada9aa"></path><path d="M410.5 665c0-64.9-52.6-117.5-117.5-117.5S175.5 600.1 175.5 665h235z" fill=""></path><path d="M293 665m-97.3 0a97.3 97.3 0 1 0 194.6 0 97.3 97.3 0 1 0-194.6 0Z" fill="#333E48"></path><path d="M293 665m-49.3 0a49.3 49.3 0 1 0 98.6 0 49.3 49.3 0 1 0-98.6 0Z" fill="#ada9aa"></path><path d="M848.5 665c0-64.9-52.6-117.5-117.5-117.5S613.4 600.1 613.4 665h235.1z" fill=""></path><path d="M731 665m-97.3 0a97.3 97.3 0 1 0 194.6 0 97.3 97.3 0 1 0-194.6 0Z" fill="#333E48"></path><path d="M731 665m-49.3 0a49.3 49.3 0 1 0 98.6 0 49.3 49.3 0 1 0-98.6 0Z" fill="#ada9aa"></path><path d="M738.6 433.3c0 8.5 6.9 15.4 15.4 15.4h112.4c8.5 0 15.4-6.9 15.4-15.4v-66.9c0-8.5-6.9-15.4-15.4-15.4H754c-8.5 0-15.4 7-15.4 15.4v66.9z" fill="#333E48"></path><path d="M866.4 351H754c-8.5 0-15.4 7-15.4 15.4v19.9c0-8.5 6.9-15.4 15.4-15.4h112.4c8.5 0 15.4 6.9 15.4 15.4v-19.9c0.1-8.5-6.9-15.4-15.4-15.4z" fill=""></path><path d="M539.8 433.3c0 8.5 6.9 15.4 15.4 15.4h112.4c8.5 0 15.4-6.9 15.4-15.4v-66.9c0-8.5-6.9-15.4-15.4-15.4H555.2c-8.5 0-15.4 7-15.4 15.4v66.9z" fill="#333E48"></path><path d="M667.6 351H555.2c-8.5 0-15.4 7-15.4 15.4v19.9c0-8.5 6.9-15.4 15.4-15.4h112.4c8.5 0 15.4 6.9 15.4 15.4v-19.9c0-8.5-6.9-15.4-15.4-15.4z" fill=""></path><path d="M340.9 433.3c0 8.5 6.9 15.4 15.4 15.4h112.4c8.5 0 15.4-6.9 15.4-15.4v-66.9c0-8.5-6.9-15.4-15.4-15.4H356.4c-8.5 0-15.4 7-15.4 15.4v66.9z" fill="#333E48"></path><path d="M468.8 351H356.4c-8.5 0-15.4 7-15.4 15.4v19.9c0-8.5 6.9-15.4 15.4-15.4h112.4c8.5 0 15.4 6.9 15.4 15.4v-19.9c0-8.5-6.9-15.4-15.4-15.4z" fill=""></path><path d="M142.1 433.3c0 8.5 6.9 15.4 15.4 15.4h112.4c8.5 0 15.4-6.9 15.4-15.4v-66.9c0-8.5-6.9-15.4-15.4-15.4H157.5c-8.5 0-15.4 7-15.4 15.4v66.9z" fill="#333E48"></path><path d="M269.9 351H157.5c-8.5 0-15.4 7-15.4 15.4v19.9c0-8.5 6.9-15.4 15.4-15.4h112.4c8.5 0 15.4 6.9 15.4 15.4v-19.9c0.1-8.5-6.9-15.4-15.4-15.4z" fill=""></path><path d="M929.7 632.5h-41.3c-5.3 0-9.7-4.3-9.7-9.7v-24.5c0-5.3 4.3-9.7 9.7-9.7h41.3v43.9zM94.2 632.5h41.3c5.3 0 9.7-4.3 9.7-9.7v-24.5c0-5.3-4.3-9.7-9.7-9.7H94.2v43.9z" fill="#FFB819"></path></g></svg>