<svg height="64px" width="64px" version="1.1" id="Layer_1" xmlns="http://www.w3.org/2000/svg" xmlns:xlink="http://www.w3.org/1999/xlink" viewBox="0 0 512.001 512.001" xml:space="preserve" fill="#8c8c8c" stroke="#8c8c8c"><g id="SVGRepo_bgCarrier" stroke-width="0"></g><g id="SVGRepo_tracerCarrier" stroke-linecap="round" stroke-linejoin="round"></g><g id="SVGRepo_iconCarrier"> <g> <polygon style="fill:#ffffff;" points="426.881,172.347 381.154,196.388 389.887,145.47 352.893,109.409 404.017,101.981 426.881,55.653 449.745,101.981 500.87,109.409 463.875,145.47 472.608,196.388 "></polygon> <polygon style="fill:#ffffff;" points="85.121,172.347 39.393,196.388 48.127,145.47 11.132,109.409 62.257,101.981 85.121,55.653 107.985,101.981 159.109,109.409 122.115,145.47 130.848,196.388 "></polygon> <polygon style="fill:#ffffff;" points="419.846,263.737 389.567,259.337 322.784,249.632 306.632,247.286 256.001,144.696 205.371,247.286 92.156,263.737 174.078,343.591 154.739,456.347 256.001,403.112 357.263,456.347 337.924,343.591 "></polygon> </g> <path d="M421.446,252.722l-30.279-4.4c-6.085-0.886-11.731,3.33-12.615,9.414c-0.884,6.083,3.331,11.731,9.414,12.615l7.962,1.158 l-65.773,64.112c-2.623,2.557-3.821,6.241-3.201,9.852l15.527,90.528l-81.3-42.742c-3.242-1.705-7.117-1.705-10.359,0l-81.3,42.742 l15.527-90.528c0.62-3.611-0.578-7.295-3.201-9.852l-65.772-64.112l90.895-13.208c3.625-0.526,6.759-2.804,8.38-6.088l40.649-82.365 l40.649,82.365c1.622,3.285,4.755,5.562,8.38,6.088l16.152,2.347c6.079,0.885,11.731-3.33,12.615-9.414 c0.884-6.084-3.33-11.731-9.414-12.615l-10.361-1.506l-48.041-97.342c-1.874-3.8-5.743-6.205-9.981-6.205s-8.106,2.405-9.981,6.204 l-48.041,97.342L90.556,252.721c-4.193,0.609-7.676,3.546-8.986,7.575s-0.217,8.452,2.817,11.41l77.731,75.77l-18.35,106.989 c-0.717,4.176,0.999,8.396,4.428,10.887c3.427,2.49,7.972,2.818,11.721,0.847l96.082-50.512l96.082,50.513 c1.628,0.856,3.407,1.279,5.178,1.279c2.307,0,4.605-0.717,6.544-2.126c3.428-2.49,5.145-6.711,4.428-10.887l-18.35-106.989 l77.731-75.77c3.034-2.957,4.126-7.381,2.817-11.41C429.122,256.268,425.639,253.331,421.446,252.722z"></path> <path d="M346.925,260.664c0.401,0.612,0.868,1.18,1.38,1.692s1.08,0.979,1.692,1.38c0.601,0.401,1.247,0.746,1.926,1.024 c0.668,0.278,1.369,0.49,2.081,0.634c0.712,0.145,1.447,0.223,2.17,0.223s1.458-0.078,2.17-0.223 c0.712-0.145,1.414-0.356,2.092-0.634c0.668-0.278,1.313-0.623,1.914-1.024c0.612-0.401,1.18-0.868,1.692-1.38 s0.979-1.08,1.38-1.692c0.412-0.601,0.746-1.247,1.024-1.926c0.278-0.668,0.501-1.369,0.634-2.081 c0.145-0.712,0.223-1.447,0.223-2.17c0-0.723-0.078-1.458-0.223-2.182c-0.134-0.701-0.356-1.402-0.634-2.081 c-0.278-0.668-0.612-1.313-1.024-1.914c-0.401-0.612-0.868-1.18-1.38-1.692s-1.08-0.979-1.692-1.391 c-0.601-0.401-1.247-0.746-1.914-1.024c-0.679-0.278-1.38-0.49-2.092-0.634c-1.425-0.289-2.905-0.289-4.341,0 c-0.712,0.145-1.414,0.356-2.081,0.634c-0.679,0.278-1.325,0.623-1.926,1.024c-0.612,0.412-1.18,0.879-1.692,1.391 s-0.979,1.08-1.38,1.692c-0.401,0.601-0.746,1.247-1.024,1.914c-0.278,0.679-0.501,1.38-0.634,2.081 c-0.145,0.723-0.223,1.458-0.223,2.182c0,0.723,0.078,1.458,0.223,2.17c0.134,0.712,0.356,1.414,0.634,2.081 C346.18,259.417,346.525,260.063,346.925,260.664z"></path> <path d="M511.456,105.97c-1.309-4.029-4.793-6.967-8.986-7.575l-45.334-6.587l-20.274-41.08c-1.875-3.799-5.744-6.204-9.981-6.204 c-4.237,0-8.106,2.405-9.981,6.204l-20.274,41.079l-45.334,6.587c-4.193,0.609-7.676,3.546-8.986,7.575 c-1.31,4.029-0.217,8.452,2.817,11.41l32.805,31.977l-7.745,45.151c-0.717,4.175,1,8.396,4.428,10.887 c3.427,2.49,7.972,2.818,11.721,0.847l40.548-21.317l40.548,21.317c1.628,0.856,3.407,1.279,5.178,1.279 c2.307,0,4.605-0.717,6.544-2.126c3.428-2.49,5.145-6.711,4.428-10.887l-7.745-45.151l32.805-31.977 C511.674,114.422,512.766,109.999,511.456,105.97z M456.106,137.499c-2.623,2.557-3.821,6.241-3.201,9.852l4.921,28.69 l-25.766-13.546c-1.622-0.853-3.4-1.279-5.179-1.279s-3.558,0.426-5.179,1.279l-25.765,13.546l4.921-28.69 c0.62-3.611-0.578-7.295-3.201-9.852l-20.845-20.319l28.807-4.186c3.625-0.526,6.759-2.804,8.38-6.088l12.882-26.103l12.883,26.103 c1.622,3.285,4.755,5.562,8.38,6.088l28.807,4.186L456.106,137.499z"></path> <path d="M125.669,206.24c3.749,1.971,8.293,1.643,11.721-0.847c3.428-2.49,5.144-6.711,4.428-10.887l-7.745-45.151l32.805-31.977 c3.034-2.957,4.126-7.381,2.817-11.41s-4.793-6.967-8.986-7.575l-45.334-6.587l-20.274-41.08c-1.874-3.799-5.743-6.205-9.981-6.205 c-4.236,0-8.106,2.405-9.981,6.204l-20.275,41.08L9.531,98.393c-4.193,0.609-7.676,3.546-8.986,7.575 c-1.31,4.029-0.217,8.452,2.817,11.41l32.805,31.977l-7.745,45.151c-0.717,4.176,1,8.396,4.428,10.887 c1.94,1.409,4.235,2.126,6.544,2.126c1.771,0,3.549-0.423,5.178-1.279l40.548-21.317L125.669,206.24z M54.176,176.041l4.921-28.69 c0.62-3.611-0.578-7.295-3.201-9.852l-20.845-20.32l28.807-4.186c3.625-0.526,6.759-2.804,8.38-6.088l12.883-26.103l12.882,26.103 c1.622,3.286,4.755,5.562,8.38,6.088l28.807,4.186l-20.845,20.319c-2.623,2.557-3.821,6.241-3.201,9.852l4.921,28.69L90.3,162.495 c-3.242-1.705-7.117-1.705-10.359,0L54.176,176.041z"></path> </g></svg>